Coordinates
version=1
nRows=8
nColumns=36
inDegrees=yes

Units are S.I. units (second, meters, Newtons, ...)
If the header above contains a line with 'inDegrees', this indicates whether rotational values are in degrees (yes) or radians (no).

endheader
time	pelvis_tilt	pelvis_list	pelvis_rotation	pelvis_tx	pelvis_ty	pelvis_tz	hip_flexion_r	hip_adduction_r	hip_rotation_r	knee_angle_r	knee_angle_r_beta	ankle_angle_r	subtalar_angle_r	mtp_angle_r	hip_flexion_l	hip_adduction_l	hip_rotation_l	knee_angle_l	knee_angle_l_beta	ankle_angle_l	subtalar_angle_l	mtp_angle_l	lumbar_extension	lumbar_bending	lumbar_rotation	arm_flex_r	arm_add_r	arm_rot_r	elbow_flex_r	pro_sup_r	arm_flex_l	arm_add_l	arm_rot_l	elbow_flex_l	pro_sup_l
      3.88333330	     -5.24778772	     -1.39285767	      0.37038430	     -0.14497144	      1.13710360	      0.05114481	     13.27263978	      3.51525008	      7.19222764	     13.08571499	      0.22838881	     12.89219879	     -5.78814652	     -7.49999987	      8.19206859	     -0.00800169	      2.54466348	     11.25118269	      0.19637018	     12.06257726	     -1.97208348	     -7.49999987	      6.77846656	      0.06643879	     -1.35731253	     -4.59616692	     -4.53720312	     -0.70454650	     26.79058370	     83.08323954	     -0.08335196	     -6.62869566	      6.95057823	     30.09429453	     85.17089987
      3.90000000	     -5.58278397	     -1.25376715	      0.39106458	     -0.14508741	      1.13836073	      0.05136256	     13.62136337	      3.41739988	      7.30102737	     13.02846420	      0.22738960	     13.24809697	     -5.62714145	     -7.49999987	      8.51957666	      0.07778350	      2.57380860	     11.37105691	      0.19846238	     12.32032869	     -2.02237831	     -7.49999987	      7.14706782	      0.08665789	     -1.34933893	     -4.75719724	     -4.69593323	     -0.67143344	     27.52650936	     82.63471725	     -0.77618977	     -6.64027570	      6.92029897	     29.93751902	     84.54691885
      3.91666670	     -5.62699730	     -1.10532278	      0.45599101	     -0.14509180	      1.14439136	      0.05211468	     13.58370221	      3.33589173	      7.32811574	     12.96805319	      0.22633523	     13.22450598	     -5.64279025	     -7.49999987	      8.54536588	      0.19595314	      2.62087488	     11.47233407	      0.20023000	     12.25737168	     -2.01346219	     -7.49999987	      7.09938978	      0.12848566	     -1.17985416	     -4.61016347	     -4.79859733	     -0.66943255	     27.58987039	     82.63846531	     -1.16020316	     -6.59069403	      6.93189052	     29.68320246	     84.53098929
      3.93333330	     -5.52950039	     -1.04709286	      0.57684577	     -0.14348890	      1.14216439	      0.05347337	     13.15991298	      3.42112893	      7.81868658	     12.67068302	      0.22114514	     12.79442143	     -5.99456362	     -7.49999987	      8.38874530	      0.25247257	      2.78732181	     11.51872484	      0.20103967	     12.09778802	     -2.34744613	     -7.49999987	      7.07353250	      0.27245864	     -1.39742263	     -4.24902203	     -5.00585804	     -0.02830730	     27.53026195	     82.70883493	     -0.94879323	     -6.23084336	      6.70718038	     27.04884574	     83.91420222
      3.95000000	     -5.54928021	     -0.96094998	      0.62012518	     -0.14238732	      1.14297251	      0.05551327	     13.11228343	      3.45238601	      8.00281992	     12.69433959	      0.22155802	     12.75122842	     -6.11951901	     -7.49999987	      8.41003910	      0.28869109	      2.84667812	     11.65999699	      0.20350534	     12.01675332	     -2.56175687	     -7.49999987	      7.11506639	      0.37282504	     -1.39065405	     -4.15298453	     -5.28256857	      0.34459786	     28.01001542	     82.15863108	     -1.25219574	     -6.15445176	      6.72842944	     26.38187234	     82.95217096
      3.96666670	     -5.60457679	     -0.90570955	      0.69822557	     -0.14270388	      1.14154553	      0.05743657	     13.08517512	      3.52057813	      8.20321901	     12.69478884	      0.22156586	     12.76864566	     -6.18795921	     -7.49999987	      8.58216645	      0.26807584	      2.98824366	     12.02878831	      0.20994196	     11.95567181	     -2.76023259	     -7.49999987	      7.14641442	      0.50772539	     -1.42588771	     -3.95697193	     -5.51944162	      0.77817717	     28.39751141	     81.69739895	     -1.49052956	     -6.12627845	      6.79774978	     25.69977958	     82.02662665
      3.98333330	     -5.79707284	     -0.85629923	      0.72474804	     -0.13880725	      1.14127738	      0.05724228	     13.20406811	      3.57612476	      8.44550779	     12.78272004	      0.22310055	     12.87633034	     -6.24421665	     -7.49999987	      8.93819888	      0.23231340	      3.14258073	     12.54529405	      0.21895669	     11.86853806	     -3.02298473	     -7.49999987	      7.45433868	      0.67770620	     -1.39369687	     -3.81509293	     -5.88344728	      1.59414346	     28.55777164	     82.26124430	     -1.74901768	     -6.00758721	      6.99289451	     24.70657765	     81.66140582
      4.00000000	     -5.79143198	     -0.77764577	      0.78558754	     -0.13512213	      1.13743042	      0.05843482	     13.02263874	      3.61924909	      8.82187113	     12.83349905	      0.22398681	     12.74571166	     -6.62168237	     -7.49999987	      8.99843711	      0.28051927	      3.67541552	     13.01826049	      0.22721151	     11.81602695	     -3.55814660	     -7.49999987	      7.42503473	      0.81330224	     -1.52319024	     -3.83024644	     -6.08699484	      1.51886171	     29.25812143	     81.76925637	     -2.30983398	     -6.01687937	      6.73229729	     24.92118616	     80.96879395
